<?xml version="1.0" encoding="UTF-8" standalone="no"?>
<!-- Created with Inkscape (http://www.inkscape.org/) -->

<svg
   xmlns:dc="http://purl.org/dc/elements/1.1/"
   xmlns:cc="http://creativecommons.org/ns#"
   xmlns:rdf="http://www.w3.org/1999/02/22-rdf-syntax-ns#"
   xmlns:svg="http://www.w3.org/2000/svg"
   xmlns="http://www.w3.org/2000/svg"
   xmlns:sodipodi="http://sodipodi.sourceforge.net/DTD/sodipodi-0.dtd"
   xmlns:inkscape="http://www.inkscape.org/namespaces/inkscape"
   version="1.1"
   id="svg10"
   width="698.41272"
   height="688.25397"
   viewBox="0 0 698.41272 688.25397"
   sodipodi:docname="Belobog symbol red.svg"
   inkscape:version="0.92.0 r15299">
  <metadata
     id="metadata16">
    <rdf:RDF>
      <cc:Work
         rdf:about="">
        <dc:format>image/svg+xml</dc:format>
        <dc:type
           rdf:resource="http://purl.org/dc/dcmitype/StillImage" />
        <dc:title></dc:title>
      </cc:Work>
    </rdf:RDF>
  </metadata>
  <defs
     id="defs14" />
  <sodipodi:namedview
     pagecolor="#ffffff"
     bordercolor="#666666"
     borderopacity="1"
     objecttolerance="10"
     gridtolerance="10"
     guidetolerance="10"
     inkscape:pageopacity="0"
     inkscape:pageshadow="2"
     inkscape:window-width="1600"
     inkscape:window-height="837"
     id="namedview12"
     showgrid="false"
     inkscape:zoom="0.97057196"
     inkscape:cx="349.20636"
     inkscape:cy="344.12698"
     inkscape:window-x="-8"
     inkscape:window-y="-8"
     inkscape:window-maximized="1"
     inkscape:current-layer="svg10" />
  <path
     style="fill:#ff0000;stroke-width:2.53968263"
     d="m 240.66387,612.69842 c -31.06009,-31.05727 -57.27553,-57.35124 -58.25653,-58.43104 -2.01562,-2.21864 21.66415,-27.24307 25.77918,-27.24307 1.46474,0 22.05331,19.41534 45.75237,43.14519 l 43.08921,43.14519 12.15974,-11.97688 12.15972,-11.97689 -64.14717,-64.18418 c -35.28094,-35.30131 -65.01227,-64.18418 -66.06962,-64.18418 -1.05736,0 -13.04748,10.85714 -26.64471,24.12699 -13.59724,13.26984 -25.31196,24.1026 -26.03272,24.07278 -0.72077,-0.0298 -27.5962,-25.72035 -59.72318,-57.09016 l -58.4127,-57.03596 14.60337,-14.62847 14.603368,-14.62844 44.44115,44.38671 44.441152,44.38672 12.03628,-12.03629 12.03628,-12.03627 -43.77059,-43.82425 -43.770574,-43.82425 43.779584,-43.77959 43.77959,-43.7796 -12.04529,-12.04527 -12.04528,-12.04529 -44.441152,44.38671 -44.44115,44.38672 -14.586154,-14.58614 -14.586152,-14.58615 59.011096,-59.0111 59.011102,-59.0111 26.70555,26.61467 26.70555,26.61466 64.08755,-64.08755 64.08757,-64.087552 -12.04675,-12.046743 -12.04673,-12.046743 -44.41138,44.356978 -44.41137,44.35697 -14.03167,-13.85736 -14.03166,-13.85737 57.79568,-57.836688 c 31.78764,-31.810179 58.56202,-57.548645 59.49868,-57.196591 0.93663,0.352054 12.66318,11.211527 26.05902,24.132162 13.39583,12.920635 25.22842,23.492063 26.2946,23.492063 1.06621,0 13.11797,-10.857143 26.78169,-24.126984 13.66372,-13.269841 25.65255,-24.126984 26.64183,-24.126984 0.98928,0 27.80442,26.02418 59.58921,57.83151 l 57.7905,57.831512 -14.03167,13.85737 -14.03164,13.85736 -44.37463,-44.32026 -44.37461,-44.32027 -11.46844,11.255408 c -6.30763,6.190476 -11.46842,12.04355 -11.46842,13.006834 0,1.305824 67.5886,69.215068 125.98873,126.586458 0.63908,0.62781 13.08592,-10.74192 27.65966,-25.26606 l 26.49772,-26.40754 59.13329,58.85625 59.13331,58.85624 -14.60338,14.63637 -14.60335,14.63637 -44.44117,-44.38672 -44.44115,-44.38671 -12.03626,12.03628 -12.0363,12.03627 43.7706,43.82426 43.77056,43.82425 -43.77958,43.77958 -43.77958,43.77961 12.04528,12.04528 12.04528,12.04528 44.44115,-44.38672 44.44117,-44.38671 14.07997,14.07997 14.08,14.08 -57.27528,57.00371 c -31.50141,31.35205 -58.57661,57.44061 -60.16713,57.97463 -1.59053,0.53399 -5.93293,-2.32315 -9.64978,-6.34921 -3.71685,-4.02608 -14.98873,-15.30057 -25.04859,-25.05442 l -18.29069,-17.7343 -64.70304,64.66575 -64.70306,64.66573 11.9682,12.15091 11.96821,12.15093 43.26232,-43.20935 c 23.79429,-23.76513 44.43625,-43.20934 45.87101,-43.20934 4.07726,0 27.72399,25.04244 25.7247,27.24307 -0.981,1.0798 -27.19644,27.37377 -58.25653,58.43104 l -56.47289,56.46775 -26.0348,-25.94618 -26.03479,-25.94621 -26.0348,25.94621 -26.03479,25.94618 z m 173.9687,-116.81425 64.11901,-64.15602 -29.85199,-29.76942 -29.85196,-29.76942 -19.68254,18.75253 c -10.8254,10.31391 -19.68254,19.69933 -19.68254,20.85651 0,1.15721 9.40973,11.56285 20.9105,23.12368 l 20.9105,21.01971 -14.54702,14.54702 -14.54702,14.54703 -21.01971,-20.91051 c -11.56084,-11.50077 -22.11482,-20.9105 -23.45328,-20.9105 -1.33847,0 -11.63185,9.15048 -22.87416,20.33438 l -20.44056,20.33437 -13.82672,-14.00063 -13.82674,-14.00066 21.47814,-21.59028 21.47813,-21.59029 -20.38533,-20.38533 -20.38532,-20.38532 -29.69816,29.9276 -29.69816,29.92759 64.07076,64.12699 c 35.23891,35.26984 64.659,64.12698 65.37796,64.12698 0.71896,0 30.16074,-28.8702 65.42621,-64.15601 z M 220.9655,313.7311 l -29.21946,-29.21945 -29.81379,29.81376 -29.81378,29.81379 29.13907,29.22197 29.13907,29.22197 29.89418,-29.81628 29.89417,-29.81631 z m 315.54293,0.62227 -29.81379,-29.81376 -29.22197,29.13907 -29.22197,29.13905 29.81628,29.8942 29.81631,29.89417 29.21946,-29.21948 29.21945,-29.21946 z m -166.28841,48.16859 19.62466,-19.74042 -20.31916,-20.2 -20.31916,-20.19998 -20.31916,20.19998 -20.31917,20.2 19.62466,19.74042 c 10.79358,10.85724 20.24971,19.74044 21.01367,19.74044 0.76396,0 10.22009,-8.8832 21.01366,-19.74044 z M 299.00991,252.06909 c -11.50306,-11.56314 -20.91466,-22.10363 -20.91466,-23.42329 0,-3.25733 23.28312,-26.70086 26.51814,-26.70086 1.42017,0 12.03454,9.40334 23.58753,20.89631 l 21.00544,20.89631 21.60157,-21.48936 21.60158,-21.48935 14.54702,14.54703 14.54702,14.54703 -21.5077,21.62003 -21.50774,21.62004 20.31012,20.31009 20.3101,20.31013 29.15213,-29.23505 29.1521,-29.23507 -64.10309,-64.1031 -64.10311,-64.1031 -64.10311,64.1031 -64.1031,64.1031 29.15212,29.23507 29.15212,29.23505 20.31009,-20.31013 20.31013,-20.31009 z"
     id="path20"
     inkscape:connector-curvature="0" />
</svg>
