<?xml version="1.0" encoding="utf-8"?>
<!-- Generator: Adobe Illustrator 21.0.0, SVG Export Plug-In . SVG Version: 6.00 Build 0)  -->
<svg version="1.1"
	 id="svg10" inkscape:version="0.92.0 r15299" sodipodi:docname="Belobog symbol red.svg" xmlns:cc="http://creativecommons.org/ns#" xmlns:dc="http://purl.org/dc/elements/1.1/" xmlns:inkscape="http://www.inkscape.org/namespaces/inkscape" xmlns:rdf="http://www.w3.org/1999/02/22-rdf-syntax-ns#" xmlns:sodipodi="http://sodipodi.sourceforge.net/DTD/sodipodi-0.dtd" xmlns:svg="http://www.w3.org/2000/svg"
	 xmlns="http://www.w3.org/2000/svg" xmlns:xlink="http://www.w3.org/1999/xlink" x="0px" y="0px" viewBox="0 0 698.4 688.3"
	 style="enable-background:new 0 0 698.4 688.3;" xml:space="preserve">
<sodipodi:namedview  bordercolor="#666666" borderopacity="1" gridtolerance="10" guidetolerance="10" id="namedview12" inkscape:current-layer="svg10" inkscape:cx="349.20636" inkscape:cy="344.12698" inkscape:pageopacity="0" inkscape:pageshadow="2" inkscape:window-height="837" inkscape:window-maximized="1" inkscape:window-width="1600" inkscape:window-x="-8" inkscape:window-y="-8" inkscape:zoom="0.97057196" objecttolerance="10" pagecolor="#ffffff" showgrid="false">
	</sodipodi:namedview>
<g id="path20" inkscape:connector-curvature="0">
	<path d="M401.8,26c0.2,0,0.5,0.1,0.8,0.3c3.1,2.8,8.1,7.5,14.2,13.4c11.3,10.9,25.9,25.4,41.3,40.8l28.9,28.9l24.5,24.5
		c0.3,0.3,0.4,0.6,0.4,0.9c0,0.2-0.1,0.6-0.4,0.8l-2.6,2.5l-7,6.9l-7,6.9l-2.6,2.6c-0.3,0.3-0.6,0.3-0.8,0.3c-0.2,0-0.6-0.1-0.8-0.4
		l-17.8-17.8l-22.2-22.2l-22.2-22.2l-17.8-17.8c-2.1-2.1-4.9-3.3-7.9-3.3c-3,0-5.7,1.1-7.8,3.2l-1.4,1.3l-5.7,5.6
		c-3.1,3.1-6.1,6.2-8.3,8.7l-0.1,0.1c-3.8,4.3-3.6,10.7,0.3,14.9c6.6,6.9,20.2,21.1,37.7,38.6c20.5,20.6,67.3,66.9,81.1,80.6
		c2.1,2.1,4.9,3.2,7.9,3.2c2.6,0,5.1-0.9,7.1-2.5c1.4-1.2,2.9-2.4,4.3-3.7c5.3-4.8,12.1-11.4,19.2-18.5l13.2-13.2l8.9-8.8
		c0.3-0.3,0.6-0.3,0.8-0.3c0.2,0,0.6,0.1,0.8,0.3l25.2,25.1l29.6,29.4l29.6,29.4l25.2,25c0.3,0.3,0.4,0.6,0.4,0.8
		c0,0.2-0.1,0.6-0.4,0.8l-2.9,2.9l-7.3,7.3l-7.3,7.3l-2.9,2.9c-0.3,0.3-0.6,0.4-0.8,0.4c-0.2,0-0.6-0.1-0.8-0.4l-17.8-17.8
		L608,272.1l-22.2-22.2l-17.8-17.8c-2.1-2.1-4.9-3.3-7.9-3.3c-3,0-5.8,1.2-7.9,3.3l-1.6,1.6l-6,6l-6,6l-1.6,1.6
		c-4.4,4.4-4.4,11.5,0,15.8l17.5,17.5l21.9,21.9l21.9,21.9l17.5,17.5c0.5,0.5,0.5,1.2,0,1.7L598,361.3l-21.9,21.9l-21.9,21.9
		l-17.5,17.5c-4.4,4.4-4.4,11.5,0,15.8l1.6,1.6l6,6l6,6l1.6,1.6c2.1,2.1,4.9,3.3,7.9,3.3c3,0,5.8-1.2,7.9-3.3l17.8-17.8l22.2-22.2
		l22.2-22.2l17.8-17.8c0.3-0.3,0.6-0.4,0.8-0.4c0.2,0,0.6,0.1,0.8,0.4l2.7,2.7l7,7l7,7l2.6,2.6c0.3,0.3,0.4,0.6,0.4,0.8
		c0,0.2-0.1,0.6-0.4,0.8l-24.2,24.1l-28.6,28.5C601,462.6,586.4,477,575,487.9c-7,6.7-13.1,12.3-16.4,15.2c-0.6-0.5-1.3-1-1.9-1.6
		c-1-0.8-2.1-1.7-3.2-2.7c-1.2-1.1-3.4-3.3-5.8-5.8c-1.3-1.4-2.8-2.8-4.4-4.4c-4.8-4.8-10.1-10-15-14.7l-9.1-8.9l-4.8-4.6
		c-2.1-2-4.9-3.2-7.8-3.2c-3,0-5.8,1.2-7.9,3.3l-28,28l-32.4,32.3L406,553.3l-28,28c-4.3,4.3-4.4,11.4-0.1,15.8l1.7,1.7l6,6.1l6,6.1
		l1.6,1.6c2.1,2.2,5,3.3,8,3.3c3,0,5.8-1.2,7.9-3.3l17.2-17.2l21.6-21.6c11.5-11.5,22.6-22.3,31.2-30.4c3.3-3.1,6.6-6.1,9.9-8.9
		c0.3-0.2,0.6-0.3,0.8-0.3c0.2,0,0.6,0.1,0.9,0.4c2.4,2.4,5.9,6,9.2,9.5c3.2,3.4,6.4,6.9,8.5,9.2c0.4,0.5,0.4,1.2,0,1.6
		c-3.2,3.2-8,8-13.7,13.8c-11,11.1-25.4,25.4-40.4,40.5L426,637.4l-23.9,23.9c-0.3,0.3-0.6,0.4-0.8,0.4c-0.2,0-0.6-0.1-0.8-0.3
		l-8.6-8.6l-13-13l-13-13l-8.6-8.6c-2.1-2.1-4.9-3.3-7.9-3.3s-5.8,1.2-7.9,3.3l-8.6,8.6l-13,13l-13,13l-8.6,8.6
		c-0.3,0.3-0.6,0.3-0.8,0.3c-0.2,0-0.6-0.1-0.8-0.4l-23.9-23.9l-28.2-28.2c-15-15-29.4-29.4-40.4-40.5c-5.7-5.7-10.4-10.5-13.6-13.7
		c-0.5-0.5-0.5-1.2,0-1.7c2.2-2.3,5.1-5.4,8-8.5c3.3-3.5,7-7.4,9.6-10.2c0.3-0.3,0.7-0.4,0.9-0.4c0.2,0,0.5,0,0.8,0.3
		c3.3,2.8,6.6,5.7,9.8,8.8c8.6,8.1,19.7,18.9,31.1,30.4l21.5,21.6l17.2,17.2c2.1,2.1,4.9,3.3,7.9,3.3c3,0,5.8-1.1,7.9-3.2l1.7-1.7
		l6.1-6l6.1-6l1.6-1.6c2.1-2.1,3.3-4.9,3.3-7.9c0-3-1.2-5.8-3.3-8l-27.7-27.7l-32.1-32.1c-17.1-17.1-33.4-33.2-45.9-45.4
		c-7.1-6.9-12.8-12.2-16.4-15.5c-2.1-1.9-4.7-2.9-7.5-2.9c-2.6,0-5.1,0.9-7.1,2.5c-1.6,1.3-3.1,2.6-4.6,4
		c-5.1,4.6-11.5,10.7-18.2,17.2c-6.5,6.4-12.8,12.4-17.7,16.9c-1.3,1.2-2.5,2.3-3.8,3.4c-0.3,0.3-0.6,0.3-0.8,0.3
		c-0.2,0-0.5-0.1-0.8-0.3c-3.1-2.8-8-7.3-14-13.1c-11.3-10.8-26.1-25.1-41.6-40.3L53,420l-24.7-24.1c-0.3-0.3-0.4-0.6-0.4-0.9
		c0-0.2,0.1-0.6,0.4-0.9l2.9-2.9l7.3-7.3l7.3-7.3l2.9-2.9c0.3-0.3,0.6-0.4,0.8-0.4c0.2,0,0.6,0.1,0.8,0.4l17.8,17.8l22.2,22.2
		l22.2,22.2l17.8,17.8c2.1,2.1,4.9,3.3,7.9,3.3c3,0,5.8-1.2,7.9-3.3l1.6-1.6l6-6l6-6l1.6-1.6c4.4-4.4,4.4-11.5,0-15.8l-17.5-17.5
		l-21.9-21.9l-21.9-21.9l-17.5-17.5c-0.5-0.5-0.5-1.2,0-1.7l17.5-17.5l21.9-21.9l21.9-21.9l17.5-17.5c4.4-4.4,4.4-11.5,0-15.8
		l-1.6-1.6l-6-6l-6-6l-1.6-1.6c-2.1-2.1-4.9-3.3-7.9-3.3c-3,0-5.8,1.2-7.9,3.3l-17.8,17.8l-22.2,22.2l-22.2,22.2l-17.8,17.8
		c-0.3,0.3-0.6,0.4-0.8,0.4c-0.2,0-0.6-0.1-0.8-0.4l-2.9-2.9l-7.3-7.3l-7.3-7.3l-2.9-2.9c-0.5-0.5-0.5-1.2,0-1.7l25.1-25.1
		l29.5-29.5l29.5-29.5l25.1-25.1c0.3-0.3,0.6-0.4,0.8-0.4c0.2,0,0.6,0.1,0.8,0.3l9,8.9l13.4,13.3l13.4,13.3l9,8.9
		c2.1,2.1,4.9,3.3,7.9,3.3c3,0,5.8-1.2,7.9-3.3l27.7-27.7l32-32l32-32l27.7-27.7c4.4-4.4,4.4-11.5,0-15.8l-1.6-1.6l-6-6l-6-6
		l-1.6-1.6c-2.1-2.1-4.9-3.3-7.9-3.3c-3,0-5.8,1.2-7.9,3.3l-17.8,17.8l-22.2,22.2l-22.2,22.2l-17.8,17.8c-0.3,0.3-0.6,0.4-0.8,0.4
		c-0.2,0-0.6-0.1-0.8-0.3l-2.6-2.6l-7-6.9l-7-6.9l-2.6-2.5c-0.3-0.3-0.4-0.6-0.4-0.8c0-0.2,0.1-0.6,0.4-0.9l24.5-24.5l28.9-28.9
		c15.4-15.4,30-29.8,41.2-40.6c6-5.7,10.9-10.2,13.9-12.9c0.3-0.2,0.6-0.3,0.8-0.3c0.2,0,0.5,0.1,0.8,0.3c1.4,1.2,2.8,2.5,4.2,3.8
		c4.9,4.6,11.2,10.5,17.6,16.7c6.5,6.3,12.9,12.2,17.9,16.7c8.7,7.8,9.8,8.2,11.9,8.2c2.1,0,3.1-0.4,12-8.4
		c5.1-4.6,11.6-10.7,18.3-17.2c6.6-6.4,12.9-12.4,17.9-16.9c1.4-1.2,2.8-2.5,4.2-3.6C401.3,26,401.6,26,401.8,26 M279.3,316.1
		c3,0,5.8-1.2,7.9-3.3l5.8-5.8l10.2-10.2l10.2-10.2l5.8-5.8c4.4-4.4,4.4-11.5,0-15.8l-6.1-6.1l-10.5-10.5
		c-5.5-5.5-10.7-11-14.6-15.4c-0.9-1-1.8-2.1-2.7-3.2c-0.4-0.5-0.3-1.2,0.1-1.6c2.5-2.6,6.2-6.4,9.7-9.8c3.4-3.4,7-7,9.4-9.4
		c0.3-0.3,0.7-0.3,0.8-0.3c0.2,0,0.5,0,0.7,0.3c1.1,0.9,2.3,1.8,3.3,2.7c4.4,3.9,9.9,9.1,15.4,14.6l10.5,10.4l6.1,6.1
		c2.1,2.1,4.9,3.3,7.9,3.3c3,0,5.8-1.2,7.9-3.3l6.4-6.4l10.8-10.7l10.8-10.7l6.4-6.4c0.3-0.3,0.6-0.3,0.8-0.3c0.2,0,0.6,0.1,0.8,0.4
		l2.9,2.9l7.3,7.3l7.3,7.3l2.9,2.9c0.5,0.5,0.5,1.2,0,1.7l-6.4,6.4l-10.8,10.8l-10.8,10.8l-6.4,6.4c-4.3,4.4-4.3,11.5,0,15.8
		l5.8,5.8l10.2,10.2l10.2,10.2l5.8,5.8c2.1,2.1,4.9,3.3,7.9,3.3c3,0,5.8-1.2,7.9-3.3l10.2-10.2l14.6-14.6l14.6-14.6l10.2-10.2
		c4.4-4.4,4.3-11.5,0-15.8l-27.7-27.7l-32.1-32.1l-32.1-32.1l-27.7-27.7c-2.1-2.1-4.9-3.3-7.9-3.3c-3,0-5.8,1.2-7.9,3.3l-27.7,27.7
		l-32.1,32.1l-32.1,32.1l-27.7,27.7c-4.4,4.4-4.4,11.5,0,15.8l10.2,10.2l14.6,14.6l14.6,14.6l10.2,10.2
		C273.5,315,276.3,316.1,279.3,316.1 M190.4,405c3,0,5.8-1.2,7.9-3.3l10.6-10.5l14.9-14.9l14.9-14.9l10.6-10.5
		c2.1-2.1,3.3-4.9,3.3-7.9c0-3-1.2-5.8-3.3-7.9l-10.2-10.2l-14.6-14.6l-14.6-14.6l-10.2-10.2c-2.1-2.1-4.9-3.3-7.9-3.3
		c-3,0-5.8,1.2-7.9,3.3l-10.5,10.5l-14.9,14.9l-14.9,14.9L133,336.2c-4.4,4.4-4.4,11.5,0,15.8l10.2,10.2l14.6,14.6l14.6,14.6
		l10.2,10.2C184.6,403.8,187.4,405,190.4,405 M507.9,405c3,0,5.8-1.2,7.9-3.3l10.2-10.2l14.6-14.6l14.6-14.6l10.2-10.2
		c2.1-2.1,3.3-4.9,3.3-7.9s-1.2-5.8-3.3-7.9L555,325.7L540,310.8l-14.9-14.9l-10.5-10.5c-2.1-2.1-4.9-3.3-7.9-3.3
		c-3,0-5.8,1.2-7.9,3.3l-10.2,10.2l-14.6,14.6l-14.6,14.6l-10.2,10.2c-2.1,2.1-3.3,4.9-3.3,7.9c0,3,1.2,5.8,3.3,7.9l10.5,10.6
		l14.9,14.9l14.9,14.9l10.5,10.6C502.1,403.9,504.9,405,507.9,405 M349.2,385.4c2.7,0,5.3-1,7.4-2.8c0.9-0.8,1.9-1.7,2.8-2.5
		c4-3.8,9.1-8.8,14.4-14.1l9.8-9.9l5.4-5.5c2.1-2.1,3.3-4.9,3.3-7.9c0-3-1.2-5.8-3.3-7.9l-5.8-5.7L373.1,319l-10.2-10.1l-5.8-5.8
		c-2.1-2.1-4.9-3.3-7.9-3.3s-5.8,1.2-7.9,3.3l-5.8,5.8L325.4,319l-10.2,10.1l-5.8,5.7c-2.1,2.1-3.3,4.9-3.3,7.9c0,3,1.1,5.8,3.3,7.9
		l5.4,5.5l9.8,9.9c5.3,5.3,10.4,10.3,14.4,14.1c0.9,0.9,1.8,1.7,2.8,2.5C343.9,384.4,346.5,385.4,349.2,385.4 M349.2,562.8
		c2.9,0,5.6-1.1,7.7-3c3.4-3.2,8.9-8.4,15.6-15c12.4-12.2,28.6-28.3,45.7-45.3l32.1-32.1l27.7-27.7c2.1-2.1,3.3-4.9,3.3-7.9
		c0-3-1.2-5.8-3.3-7.9l-10.5-10.5l-14.9-14.9l-14.9-14.9l-10.6-10.6c-2.1-2.1-4.9-3.3-7.9-3.3c-2.9,0-5.6,1.1-7.7,3.1l-5.5,5.2
		l-9.8,9.4c-5.3,5-10.3,10-14.1,14.1c-1,1.1-2,2.2-2.9,3.3c-3.4,4.1-3.5,10-0.1,14.2c1.1,1.4,2.2,2.7,3.4,4c4,4.4,9.3,10,14.9,15.6
		l10.5,10.5l6.1,6.1c0.5,0.5,0.5,1.2,0,1.7l-2.9,2.9l-7.3,7.3l-7.3,7.3l-2.9,2.9c-0.3,0.3-0.6,0.4-0.8,0.4c-0.2,0-0.6-0.1-0.8-0.3
		l-6.1-6.1l-10.5-10.5c-5.7-5.6-11.3-10.9-15.8-15c-1.4-1.2-2.9-2.5-4.4-3.6c-2-1.5-4.4-2.3-6.9-2.3c-2.5,0-4.9,0.8-6.8,2.3
		c-1.5,1.1-2.9,2.3-4.2,3.5c-4.4,3.9-9.9,9.1-15.4,14.6l-10.2,10.2l-5.8,5.8c-0.3,0.3-0.6,0.3-0.8,0.3c-0.2,0-0.6-0.1-0.9-0.4
		l-2.5-2.6l-6.9-7l-6.9-7l-2.6-2.6c-0.5-0.5-0.5-1.2,0-1.7l6.4-6.4l10.7-10.8l10.7-10.8l6.4-6.4c4.3-4.4,4.3-11.5,0-15.8l-5.8-5.8
		l-10.2-10.2l-10.2-10.2l-5.8-5.8c-2.1-2.1-4.9-3.3-7.9-3.3c-3,0-5.8,1.2-7.9,3.3l-10.5,10.5l-14.8,15l-14.8,15l-10.5,10.6
		c-4.3,4.4-4.3,11.5,0,15.8l27.7,27.7l32,32.1c17.1,17.1,33.3,33.2,45.7,45.3c6.7,6.6,12.2,11.8,15.6,15
		C343.6,561.7,346.4,562.8,349.2,562.8 M401.8,21c-1.4,0-2.8,0.5-3.9,1.4c-1.3,1.1-2.8,2.3-4.4,3.8c-4.8,4.4-11.2,10.4-18.1,17
		c-6.8,6.6-13.3,12.7-18.1,17c-4.9,4.4-8.1,7.1-8.7,7.1s-3.8-2.6-8.5-6.9c-4.8-4.3-11.1-10.1-17.8-16.6c-6.7-6.5-13-12.4-17.7-16.8
		c-1.6-1.5-3-2.8-4.3-3.8c-1.2-1-2.6-1.5-4.1-1.5c-1.5,0-2.9,0.5-4.1,1.5c-3.2,2.8-8.1,7.3-14.1,13c-10.8,10.4-25.4,24.8-41.3,40.7
		l-28.9,28.9l-24.5,24.5c-2.4,2.4-2.4,6.4,0,8.8l2.6,2.5l7,6.9l7,6.9l2.6,2.6c1.2,1.2,2.8,1.8,4.4,1.8c1.6,0,3.2-0.6,4.4-1.8
		l17.8-17.8l22.2-22.2l22.2-22.2l17.8-17.8c1.2-1.2,2.8-1.8,4.4-1.8c1.6,0,3.2,0.6,4.4,1.8l1.6,1.6l6,6l6,6l1.6,1.6
		c2.4,2.4,2.4,6.3,0,8.8l-27.7,27.7l-32,32l-32,32l-27.7,27.7c-1.2,1.2-2.8,1.8-4.4,1.8c-1.6,0-3.2-0.6-4.4-1.8l-9-8.9l-13.4-13.3
		l-13.4-13.3l-9-8.9c-1.2-1.2-2.8-1.8-4.4-1.8c-1.6,0-3.2,0.6-4.4,1.8l-25.1,25.1l-29.5,29.5l-29.5,29.5l-25.1,25.1
		c-2.4,2.4-2.4,6.3,0,8.8l2.9,2.9l7.3,7.3l7.3,7.3l2.9,2.9c1.2,1.2,2.8,1.8,4.4,1.8c1.6,0,3.2-0.6,4.4-1.8l17.8-17.8L94,275.6
		l22.2-22.2l17.8-17.8c1.2-1.2,2.8-1.8,4.4-1.8c1.6,0,3.2,0.6,4.4,1.8l1.6,1.6l6,6l6,6l1.6,1.6c2.4,2.4,2.4,6.3,0,8.8l-17.5,17.5
		l-21.9,21.9L96.8,321l-17.5,17.5c-2.4,2.4-2.4,6.3,0,8.8l17.5,17.5l21.9,21.9l21.9,21.9l17.5,17.5c2.4,2.4,2.4,6.3,0,8.8l-1.6,1.6
		l-6,6l-6,6l-1.6,1.6c-1.2,1.2-2.8,1.8-4.4,1.8c-1.6,0-3.2-0.6-4.4-1.8l-17.8-17.8L94,410.2L71.7,388l-17.8-17.8
		c-1.2-1.2-2.8-1.8-4.4-1.8c-1.6,0-3.2,0.6-4.4,1.8l-2.9,2.9l-7.3,7.3l-7.3,7.3l-2.9,2.9c-2.4,2.4-2.4,6.4,0.1,8.8l24.7,24.1
		l29.2,28.5c16.1,15.7,30.8,30,41.6,40.3c6,5.7,10.9,10.3,14.1,13.2c1.2,1.1,2.7,1.6,4.2,1.6c1.4,0,2.9-0.5,4.1-1.5
		c1.2-1,2.5-2.2,3.9-3.5c4.7-4.4,11-10.4,17.8-17c6.8-6.6,13.2-12.7,18-17c1.6-1.5,3.1-2.8,4.4-3.8c1.1-0.9,2.5-1.4,3.9-1.4
		c1.5,0,3,0.5,4.2,1.6c3.5,3.2,9.3,8.5,16.3,15.4c12,11.6,28.2,27.7,45.9,45.3l32.1,32.1l27.7,27.7c2.4,2.4,2.4,6.4,0,8.8l-1.6,1.6
		l-6.1,6l-6.1,6l-1.7,1.7c-1.2,1.2-2.8,1.8-4.4,1.8c-1.6,0-3.2-0.6-4.4-1.8l-17.2-17.2l-21.5-21.6c-11.8-11.9-22.9-22.7-31.2-30.5
		c-3.9-3.7-7.4-6.8-10-8.9c-1.2-1-2.6-1.5-4-1.5c-1.7,0-3.3,0.7-4.5,2c-2.7,2.9-6.3,6.7-9.6,10.2c-2.9,3.1-5.8,6.1-8,8.5
		c-2.3,2.4-2.3,6.2,0.1,8.6c3.2,3.2,7.9,8,13.6,13.7c10.6,10.6,24.9,24.9,40.4,40.5l28.2,28.2l23.9,23.9c1.2,1.2,2.8,1.8,4.4,1.8
		c1.6,0,3.2-0.6,4.4-1.8l8.6-8.6l13-13l13-13l8.6-8.6c1.2-1.2,2.8-1.8,4.4-1.8s3.2,0.6,4.4,1.8l8.6,8.6l13,13l13,13l8.6,8.6
		c1.2,1.2,2.8,1.8,4.4,1.8c1.6,0,3.2-0.6,4.4-1.8l23.9-23.9l28.2-28.2c15.5-15.5,29.8-29.9,40.4-40.5c5.8-5.8,10.6-10.6,13.7-13.8
		c2.3-2.3,2.4-6.1,0.2-8.5c-2.4-2.6-5.5-6-8.6-9.3c-3.2-3.4-6.7-6.9-9.2-9.6c-1.2-1.2-2.8-1.9-4.4-1.9c-1.4,0-2.8,0.5-4,1.5
		c-2.6,2.2-6.1,5.3-10.1,9c-8.3,7.8-19.4,18.6-31.3,30.5l-21.6,21.6L405.6,609c-1.2,1.2-2.8,1.8-4.4,1.8c-1.6,0-3.2-0.6-4.4-1.8
		l-1.6-1.6l-6-6.1l-6-6.1l-1.7-1.7c-2.4-2.4-2.4-6.3,0-8.7l28-28l32.4-32.3l32.4-32.3l28-28c1.2-1.2,2.8-1.8,4.4-1.8
		c1.6,0,3.1,0.6,4.3,1.7l4.8,4.6l9.1,8.9c5,4.9,10.4,10.1,14.9,14.7c4.5,4.5,8.3,8.5,10.3,10.3c2.2,2,4.2,3.4,5.7,4.8c0,0,0,0,0,0
		c0.8,0.6,1.8,1,2.7,1c1,0,2.1-0.4,2.9-1.1c3.4-3,9.7-8.7,16.9-15.7c10.9-10.5,25.5-24.9,41.3-40.5l28.6-28.5l24.2-24.1
		c2.4-2.4,2.4-6.4,0-8.8l-2.6-2.6l-7-7l-7-7l-2.7-2.7c-1.2-1.2-2.8-1.8-4.4-1.8c-1.6,0-3.2,0.6-4.4,1.8L626.7,388l-22.2,22.2
		l-22.2,22.2l-17.8,17.8c-1.2,1.2-2.8,1.8-4.4,1.8c-1.6,0-3.2-0.6-4.4-1.8l-1.6-1.6l-6-6l-6-6l-1.6-1.6c-2.4-2.4-2.4-6.3,0-8.8
		l17.5-17.5l21.9-21.9l21.9-21.9l17.5-17.5c2.4-2.4,2.4-6.3,0-8.8L601.6,321l-21.9-21.9l-21.9-21.9l-17.5-17.5
		c-2.4-2.4-2.4-6.3,0-8.8l1.6-1.6l6-6l6-6l1.6-1.6c1.2-1.2,2.8-1.8,4.4-1.8c1.6,0,3.2,0.6,4.4,1.8l17.8,17.8l22.2,22.2l22.2,22.2
		l17.8,17.8c1.2,1.2,2.8,1.8,4.4,1.8c1.6,0,3.2-0.6,4.4-1.8l2.9-2.9l7.3-7.3l7.3-7.3l2.9-2.9c2.4-2.4,2.4-6.4,0-8.8l-25.2-25
		L619,231.9l-29.6-29.4l-25.2-25.1c-1.2-1.2-2.8-1.8-4.4-1.8c-1.6,0-3.2,0.6-4.4,1.8l-8.9,8.8l-13.2,13.2
		c-7.3,7.3-14,13.7-19.1,18.3c-1.5,1.4-2.9,2.6-4.1,3.6c-1.2,0.9-2.6,1.4-3.9,1.4c-1.6,0-3.1-0.6-4.3-1.8
		c-13.7-13.5-60.5-59.9-81.1-80.6c-17.7-17.7-31.4-32.1-37.6-38.6c-2.2-2.3-2.3-5.8-0.2-8.2c0,0,0,0,0.1-0.1
		c2.1-2.4,4.9-5.4,8.1-8.5l5.7-5.6l1.4-1.3c1.2-1.2,2.8-1.8,4.3-1.8c1.6,0,3.2,0.6,4.4,1.8L424.8,96l22.2,22.2l22.2,22.2l17.8,17.8
		c1.2,1.2,2.8,1.8,4.4,1.8c1.6,0,3.1-0.6,4.4-1.8l2.6-2.6l7-6.9l7-6.9l2.6-2.5c2.4-2.4,2.5-6.4,0-8.8l-24.5-24.5l-28.9-28.9
		c-15.9-15.9-30.5-30.4-41.3-40.8c-6.1-5.9-11.1-10.6-14.3-13.5C404.8,21.5,403.3,21,401.8,21L401.8,21z M279.3,311.1
		c-1.6,0-3.2-0.6-4.4-1.8l-10.2-10.2l-14.6-14.6l-14.6-14.6l-10.2-10.2c-2.4-2.4-2.4-6.3,0-8.8l27.7-27.7l32.1-32.1l32.1-32.1
		l27.7-27.7c1.2-1.2,2.8-1.8,4.4-1.8s3.2,0.6,4.4,1.8l27.7,27.7l32.1,32.1l32.1,32.1l27.7,27.7c2.4,2.4,2.4,6.3,0,8.8l-10.2,10.2
		l-14.6,14.6l-14.6,14.6l-10.2,10.2c-1.2,1.2-2.8,1.8-4.4,1.8c-1.6,0-3.2-0.6-4.4-1.8l-5.8-5.8l-10.2-10.2l-10.2-10.2l-5.8-5.8
		c-2.4-2.4-2.4-6.3,0-8.8l6.4-6.4l10.8-10.8l10.8-10.8l6.4-6.4c2.4-2.4,2.4-6.3,0-8.8l-2.9-2.9l-7.3-7.3l-7.3-7.3l-2.9-2.9
		c-1.2-1.2-2.8-1.8-4.4-1.8c-1.6,0-3.2,0.6-4.4,1.8l-6.4,6.4l-10.8,10.7L360,233l-6.4,6.4c-1.2,1.2-2.8,1.8-4.4,1.8
		s-3.2-0.6-4.4-1.8l-6.1-6.1l-10.5-10.4c-5.8-5.7-11.3-11-15.6-14.8c-1.3-1.1-2.5-2.1-3.5-2.9c-1.1-0.9-2.5-1.3-3.8-1.3
		c-1.6,0-3.2,0.6-4.4,1.8c-2.6,2.5-6.1,6.1-9.5,9.4c-3.4,3.4-7.1,7.2-9.7,9.8c-2.2,2.2-2.4,5.7-0.4,8.2c0.8,1,1.8,2.2,2.9,3.4
		c3.8,4.2,9,9.8,14.8,15.6l10.5,10.5l6.1,6.1c2.4,2.4,2.4,6.3,0,8.8l-5.8,5.8l-10.2,10.2l-10.2,10.2l-5.8,5.8
		C282.5,310.5,280.9,311.1,279.3,311.1L279.3,311.1z M190.4,400c-1.6,0-3.2-0.6-4.4-1.8L175.8,388l-14.6-14.6l-14.6-14.6l-10.2-10.2
		c-2.4-2.4-2.4-6.3,0-8.8l10.5-10.5l14.9-14.9l14.9-14.9l10.5-10.5c1.2-1.2,2.8-1.8,4.4-1.8s3.2,0.6,4.4,1.8l10.2,10.2l14.6,14.6
		l14.6,14.6l10.2,10.2c2.4,2.4,2.4,6.4,0,8.8l-10.6,10.5l-14.9,14.9l-14.9,14.9l-10.6,10.5C193.6,399.4,192,400,190.4,400L190.4,400
		z M507.9,400c-1.6,0-3.2-0.6-4.4-1.8L493,387.7l-14.9-14.9l-14.9-14.9l-10.5-10.6c-2.4-2.4-2.4-6.4,0-8.8l10.2-10.2l14.6-14.6
		l14.6-14.6l10.2-10.2c1.2-1.2,2.8-1.8,4.4-1.8c1.6,0,3.2,0.6,4.4,1.8l10.5,10.5l14.9,14.9l14.9,14.9l10.5,10.5
		c2.4,2.4,2.4,6.3,0,8.8l-10.2,10.2l-14.6,14.6L522.5,388l-10.2,10.2C511.1,399.4,509.5,400,507.9,400L507.9,400z M349.2,380.4
		c-1.5,0-2.9-0.5-4.1-1.5c-0.8-0.7-1.7-1.5-2.7-2.4c-3.8-3.6-8.9-8.5-14.3-13.9l-9.8-9.9l-5.4-5.5c-2.4-2.4-2.4-6.4,0-8.8l5.8-5.7
		l10.2-10.1l10.2-10.1l5.8-5.8c1.2-1.2,2.8-1.8,4.4-1.8s3.2,0.6,4.4,1.8l5.8,5.8l10.2,10.1l10.2,10.1l5.8,5.7c2.4,2.4,2.4,6.3,0,8.8
		l-5.4,5.5l-9.8,9.9h0c-5.4,5.4-10.5,10.4-14.3,13.9c-1,0.9-1.9,1.7-2.7,2.4C352.1,379.9,350.7,380.4,349.2,380.4L349.2,380.4z
		 M349.2,557.8c-1.5,0-3-0.6-4.2-1.7c-3.5-3.3-8.9-8.4-15.5-14.9c-11.8-11.6-28-27.7-45.6-45.3l-32-32.1l-27.7-27.7
		c-2.4-2.4-2.4-6.3,0-8.7l10.5-10.6l14.8-15l14.8-15l10.5-10.5c1.2-1.2,2.8-1.8,4.4-1.8c1.6,0,3.2,0.6,4.4,1.8l5.8,5.8l10.2,10.2
		l10.2,10.2l5.8,5.8c2.4,2.4,2.4,6.3,0,8.8l-6.4,6.4l-10.7,10.8l-10.7,10.8l-6.4,6.4c-2.4,2.4-2.4,6.3,0,8.7l2.6,2.6l6.9,7l6.9,7
		l2.5,2.6c1.2,1.2,2.8,1.8,4.4,1.8c1.6,0,3.2-0.6,4.4-1.8l5.8-5.8l10.2-10.2c5.6-5.6,11-10.7,15.2-14.4c1.4-1.3,2.8-2.4,3.9-3.3
		c1.1-0.9,2.4-1.3,3.8-1.3c1.3,0,2.7,0.4,3.8,1.3c1.2,0.9,2.6,2.1,4.1,3.4c4.3,3.8,9.8,9,15.6,14.8l10.5,10.5l6.1,6.1
		c1.2,1.2,2.8,1.8,4.4,1.8c1.6,0,3.2-0.6,4.4-1.8l2.9-2.9l7.3-7.3l7.3-7.3l2.9-2.9c2.4-2.4,2.4-6.3,0-8.8l-6.1-6.1l-10.5-10.5
		c-5.8-5.8-11-11.3-14.8-15.5c-1.2-1.4-2.3-2.6-3.2-3.7c-1.8-2.3-1.8-5.6,0.1-7.8c0.8-0.9,1.7-2,2.8-3.1c3.6-3.8,8.5-8.7,13.9-13.9
		l9.8-9.4l5.5-5.2c1.2-1.1,2.7-1.7,4.3-1.7c1.6,0,3.2,0.6,4.4,1.8l10.6,10.6l14.9,14.9l14.9,14.9l10.5,10.5c2.4,2.4,2.4,6.3,0,8.8
		l-27.7,27.7l-32.1,32.1c-17.6,17.6-33.8,33.7-45.7,45.3c-6.6,6.5-12.1,11.7-15.5,14.9C352.3,557.2,350.7,557.8,349.2,557.8
		L349.2,557.8z"/>
</g>
</svg>
